<svg width="60" height="61" viewBox="0 0 60 61" fill="none" xmlns="http://www.w3.org/2000/svg">
<path fill-rule="evenodd" clip-rule="evenodd" d="M12.8013 0.0756657C11.0143 0.239403 8.34036 1.06111 6.7563 1.93355C4.03835 3.43023 2.24644 5.68265 1.43736 8.61924C1.17396 9.57492 1.22327 12.3512 1.52253 13.4189C1.75116 14.2349 2.24617 15.4009 2.75381 16.3197C3.16202 17.0583 6.23153 20.0013 6.59383 20.0013C6.67071 20.0013 6.75399 20.0606 6.77898 20.133C6.8556 20.3558 8.85059 21.454 12.19 23.1114C16.2069 25.105 17.3992 25.7109 18.1671 26.149C19.1514 26.7106 20.6717 27.7147 20.781 27.8754C20.8366 27.957 20.8807 32.2104 20.8792 37.3272L20.8766 46.6309L20.0992 47.0207C18.0496 48.0485 16.5255 48.388 13.9621 48.388C12.0794 48.388 10.4503 48.172 9.16153 47.7516C8.80345 47.6348 8.40611 47.5189 8.27855 47.4942C8.15113 47.4694 8.03159 47.4366 8.01284 47.4215C7.9941 47.4063 7.93297 47.3853 7.877 47.375C7.54813 47.3143 4.71145 45.6717 4.32172 45.3164C2.67068 43.8112 1.89923 42.7322 1.18333 40.9275C0.643356 39.5662 0.39585 38.3667 0.17592 36.046C0.00299198 34.2216 0.000546793 34.2693 3.4203e-06 39.3372C-0.000404109 42.861 0.0355943 44.1559 0.114383 43.4512C0.177686 42.8855 0.271554 42.2684 0.322902 42.0799C0.374251 41.8913 0.409027 41.6993 0.400197 41.6533C0.391503 41.6072 0.503574 41.5763 0.649469 41.5847C0.812073 41.594 1.20412 41.9932 1.66218 42.6158C2.07324 43.1745 2.73154 43.9767 3.12521 44.3985C3.89069 45.2189 5.47611 46.4682 5.7516 46.4682C5.84343 46.4682 5.93893 46.5144 5.96392 46.571C6.11647 46.9175 8.6293 47.8976 10.492 48.3372C11.3566 48.5412 12.0922 48.5918 14.0918 48.585C16.6104 48.5763 18.1768 48.3889 19.7451 47.9085C20.9959 47.5255 20.884 47.0621 20.884 52.6205C20.884 55.3254 20.8235 57.8601 20.7498 58.253C20.5844 59.1331 20.0207 59.9594 19.3897 60.2463C18.7965 60.516 17.5282 60.7283 16.503 60.7292C16.0735 60.7297 15.7219 60.7895 15.7219 60.862C15.7219 61.0281 26 61.0534 26.1014 60.8876C26.1407 60.8235 25.5346 60.7343 24.7543 60.6898C22.7443 60.5748 21.8576 60.1388 21.3438 59.0126C21.1186 58.5191 21.0906 57.9497 21.0489 53.0123L21.0028 47.5574L21.6567 47.2786C23.8915 46.3254 25.0866 45.6209 26.4049 44.4797C29.2594 42.0087 30.6914 38.8788 30.6834 35.1291C30.6795 33.3366 30.5362 32.2829 30.1149 30.9517C29.8269 30.042 28.9078 28.2294 28.7343 28.2294C28.6753 28.2294 28.627 28.1327 28.627 28.0145C28.627 27.8964 27.9698 27.1394 27.1667 26.3324C25.6484 24.8068 23.8435 23.4855 22.0047 22.5539L21.0198 22.0549V19.5882C21.0198 18.2315 21.0709 17.1215 21.1334 17.1215C21.1959 17.1215 21.4741 17.4146 21.7515 17.7729C22.3097 18.4937 24.5042 21.3062 25.0954 22.0583C25.3028 22.3223 25.7848 22.9394 26.1665 23.4297C26.5482 23.9199 26.9829 24.4652 27.1325 24.6413C27.2821 24.8173 27.4044 24.9896 27.4044 25.0241C27.4044 25.0586 27.5332 25.223 27.6908 25.3896C27.8482 25.5561 28.1146 25.9084 28.2829 26.1724C28.4511 26.4363 28.7655 26.8438 28.9814 27.0779C29.1974 27.3118 29.527 27.7194 29.7138 27.9835C30.2148 28.6918 30.8315 29.4806 31.1401 29.8079C31.2896 29.9663 31.5718 30.3394 31.7675 30.6369C31.9632 30.9343 32.6051 31.778 33.1938 32.5115C33.7827 33.245 34.4899 34.1398 34.7654 34.4999C35.041 34.8601 35.9185 35.9877 36.7155 37.0059C37.5125 38.0241 38.2958 39.0363 38.4561 39.2552C38.6163 39.4741 38.8696 39.7899 39.019 39.9569C39.1685 40.1239 39.3518 40.355 39.4266 40.4705C39.6519 40.8189 44.2379 46.7309 45.1958 47.9081C45.6869 48.5115 46.179 49.138 46.2895 49.3005C46.5314 49.6562 48.2881 51.9376 48.5437 52.2278C48.9047 52.6379 49.5313 53.4389 51.3856 55.8618C52.4247 57.2194 53.4748 58.5462 53.719 58.8102C53.9633 59.0742 54.1638 59.3309 54.1643 59.3807C54.1665 59.5466 55.2565 60.8672 55.3913 60.8672C55.4771 60.8672 55.5242 53.2449 55.5248 39.3029C55.5252 26.4104 55.5772 17.4203 55.654 16.9471C55.8171 15.9411 56.3576 15.1491 57.0862 14.8484C57.385 14.725 58.3325 14.5457 59.1917 14.45C60.6747 14.2849 60.4852 14.2757 55.456 14.2697C52.5422 14.2663 50.2193 14.2862 50.294 14.314C50.3687 14.3418 51.0875 14.4285 51.8911 14.5065C53.9008 14.7018 54.5492 15.0536 55.0773 16.2352C55.3061 16.747 55.3224 17.839 55.3576 34.9958C55.3801 45.9882 55.3455 53.1943 55.2703 53.166C55.15 53.1207 52.54 49.9104 52.1279 49.3005C51.9483 49.0348 50.2397 46.8557 47.9178 43.9312C47.4986 43.4032 46.7692 42.4622 46.2967 41.8399C45.8242 41.2176 45.394 40.7085 45.3406 40.7085C45.2872 40.7085 45.1722 40.5696 45.085 40.4C44.9978 40.2302 44.6504 39.752 44.313 39.3372C43.7169 38.6042 42.7111 37.315 41.598 35.8576C41.2981 35.4648 40.6572 34.6522 40.174 34.0519C39.6906 33.4517 39.2482 32.8988 39.1906 32.8233C38.8828 32.4195 35.4461 28.0124 34.7527 27.1323C34.3072 26.5666 33.6527 25.7335 33.2984 25.281C32.9441 24.8284 32.3096 24.0262 31.8882 23.4983C30.8356 22.1793 28.6519 19.3955 28.0056 18.5484C26.5553 16.648 25.2248 14.9577 24.9124 14.6188L24.5646 14.2417L20.1094 14.2627C16.4703 14.2798 15.8905 14.3067 16.9445 14.4092C19.1935 14.6276 20.1383 15.064 20.5622 16.0797C20.7472 16.5228 20.809 17.1849 20.855 19.2128C20.9226 22.1945 21.0095 22.0585 19.5197 21.3011C18.9971 21.0355 18.255 20.6929 17.8704 20.5399C16.2889 19.9106 11.3223 17.4726 10.2882 16.8179C9.42466 16.2712 7.84861 15.0699 7.43809 14.6454C7.01155 14.2044 6.32554 13.1252 5.93173 12.2758C5.41118 11.1529 5.21529 9.95231 5.31283 8.4821C5.55517 4.82954 7.85595 1.91024 11.4429 0.704561C12.4438 0.368172 12.7122 0.338551 14.839 0.331146C17.1166 0.323192 17.1655 0.329363 18.4095 0.776419C19.1031 1.02559 19.9372 1.41121 20.263 1.63323C20.5889 1.85525 20.892 2.03682 20.9365 2.03682C21.2683 2.03682 23.2387 4.03403 23.7333 4.87151C23.9929 5.31116 24.268 5.71625 24.3446 5.77165C24.4212 5.82706 24.4304 5.87327 24.3654 5.8745C24.3002 5.8756 24.3072 5.95377 24.381 6.04798C24.5846 6.30826 25.0966 8.01269 25.3182 9.16777C25.4266 9.73345 25.5525 10.9236 25.5979 11.8125C25.7632 15.0482 25.9102 13.4521 25.9102 8.42163C25.9102 5.07927 25.8625 3.27102 25.7743 3.27102C25.697 3.27102 25.6385 3.67556 25.6385 4.21052C25.6385 5.2367 25.4369 6.0137 25.1705 6.0137C24.9284 6.0137 24.5549 5.6374 24.0135 4.84806C23.5674 4.1975 21.699 2.18506 21.699 2.3551C21.699 2.39912 21.5444 2.29051 21.3555 2.11375C20.8802 1.66902 19.361 0.892709 18.303 0.553714C16.7341 0.0511188 14.8536 -0.112345 12.8013 0.0756657ZM22.468 29.3055C23.7431 30.567 24.6559 31.9793 25.1849 33.509C25.5388 34.5324 25.5645 34.7534 25.5655 36.8002C25.5665 38.6459 25.5185 39.1733 25.2632 40.1215C24.8676 41.5903 24.4374 42.5548 23.6481 43.7423C22.9804 44.7469 21.3461 46.3814 21.1387 46.2519C21.0727 46.2108 21.0198 42.1851 21.0198 37.2035C21.0198 29.8388 21.0522 28.2294 21.2001 28.2294C21.2991 28.2294 21.8698 28.7136 22.468 29.3055Z" fill="#F5F5F5"/>
</svg>
