<svg width="121" height="121" viewBox="0 0 121 121" fill="none" xmlns="http://www.w3.org/2000/svg">
<path fill-rule="evenodd" clip-rule="evenodd" d="M26.1026 0.150091C22.5286 0.474882 17.1807 2.10482 14.0126 3.83541C8.57669 6.80423 4.99288 11.2722 3.37472 17.0972C2.84792 18.9929 2.94654 24.4999 3.54507 26.6179C4.00231 28.2364 4.99234 30.5494 6.00763 32.3719C6.82405 33.837 12.9631 39.6748 13.6877 39.6748C13.8414 39.6748 14.008 39.7923 14.058 39.9359C14.2112 40.378 18.2012 42.5563 24.88 45.8439C32.9138 49.7985 35.2984 51.0003 36.8342 51.8694C38.8029 52.9833 41.8433 54.9751 42.062 55.2939C42.1731 55.4557 42.2614 63.8927 42.2584 74.0425L42.2533 92.4974L40.6984 93.2705C36.5992 95.3093 33.5509 95.9828 28.4242 95.9828C24.6589 95.9828 21.4006 95.5544 18.8231 94.7204C18.1069 94.4886 17.3122 94.2588 17.0571 94.2098C16.8023 94.1606 16.5632 94.0955 16.5257 94.0656C16.4882 94.0354 16.3659 93.9938 16.254 93.9734C15.5963 93.8529 9.9229 90.5947 9.14343 89.8899C5.84136 86.9042 4.29845 84.7639 2.86667 81.1841C1.78671 78.4838 1.2917 76.1045 0.85184 71.5011C0.505984 67.8821 0.501094 67.9768 0.500007 78.0295C0.499192 85.0193 0.571189 87.588 0.728767 86.1901C0.855372 85.068 1.04311 83.844 1.1458 83.4699C1.2485 83.0959 1.31805 82.7151 1.30039 82.6237C1.28301 82.5323 1.50715 82.4711 1.79894 82.4877C2.12415 82.5062 2.90823 83.298 3.82436 84.533C4.64648 85.6412 5.96307 87.2325 6.75042 88.0692C8.28137 89.6964 11.4522 92.1745 12.0032 92.1745C12.1869 92.1745 12.3779 92.2662 12.4278 92.3786C12.7329 93.066 17.7586 95.0101 21.484 95.8819C23.2132 96.2867 24.6844 96.387 28.6836 96.3734C33.7207 96.3563 36.8535 95.9845 39.9901 95.0316C42.4918 94.2718 42.268 93.3527 42.268 104.378C42.268 109.744 42.1471 114.772 41.9995 115.551C41.6689 117.297 40.5414 118.936 39.2794 119.505C38.093 120.04 35.5565 120.461 33.5061 120.463C32.647 120.464 31.9439 120.582 31.9439 120.726C31.9439 121.056 52.4999 121.106 52.7029 120.777C52.7814 120.65 51.5691 120.473 50.0086 120.385C45.9887 120.157 44.2151 119.292 43.1876 117.058C42.7372 116.079 42.6812 114.949 42.5978 105.156L42.5057 94.3352L43.8133 93.7822C48.2831 91.8914 50.6731 90.494 53.3098 88.2303C59.0188 83.3287 61.8829 77.1202 61.8669 69.6823C61.859 66.1268 61.5723 64.0366 60.7298 61.3961C60.1539 59.5915 58.3156 55.996 57.9687 55.996C57.8505 55.996 57.7541 55.8042 57.7541 55.5697C57.7541 55.3355 56.4397 53.834 54.8334 52.2331C51.7968 49.2069 48.1869 46.586 44.5094 44.7382L42.5396 43.7483V38.8552C42.5396 36.1641 42.6418 33.9624 42.7668 33.9624C42.8917 33.9624 43.4482 34.5437 44.0029 35.2545C45.1193 36.6842 49.5084 42.2631 50.6908 43.7551C51.1056 44.2787 52.0696 45.5028 52.833 46.4753C53.5965 47.4477 54.4659 48.5293 54.765 48.8786C55.0641 49.2278 55.3089 49.5695 55.3089 49.6381C55.3089 49.7063 55.5665 50.0325 55.8816 50.363C56.1965 50.6932 56.7293 51.392 57.0659 51.9157C57.4022 52.4393 58.0309 53.2475 58.4629 53.7118C58.8949 54.1759 59.554 54.9843 59.9276 55.5082C60.9295 56.9132 62.163 58.4779 62.7803 59.1272C63.0791 59.4414 63.6437 60.1815 64.0349 60.7715C64.4264 61.3615 65.7101 63.035 66.8876 64.49C68.0654 65.9451 69.4798 67.72 70.0308 68.4343C70.582 69.1487 72.3371 71.3855 73.9311 73.4052C75.5251 75.4249 77.0916 77.4327 77.4122 77.8669C77.7325 78.301 78.2392 78.9275 78.5381 79.2588C78.8369 79.5901 79.2037 80.0485 79.3531 80.2775C79.8038 80.9687 88.9757 92.6957 90.8916 95.0308C91.8738 96.2276 92.8581 97.4705 93.079 97.7928C93.5629 98.4985 97.0763 103.024 97.5873 103.599C98.3095 104.413 99.5625 106.002 103.271 110.808C105.349 113.501 107.45 116.133 107.938 116.656C108.427 117.18 108.828 117.689 108.829 117.788C108.833 118.117 111.013 120.737 111.283 120.737C111.454 120.737 111.548 105.617 111.55 77.9615C111.55 52.3879 111.654 34.5551 111.808 33.6164C112.134 31.6208 113.215 30.0499 114.672 29.4534C115.27 29.2086 117.165 28.853 118.883 28.6632C121.849 28.3357 121.47 28.3174 111.412 28.3055C105.584 28.2987 100.939 28.3381 101.088 28.3933C101.237 28.4485 102.675 28.6205 104.282 28.7752C108.302 29.1626 109.598 29.8603 110.655 32.2043C111.112 33.2195 111.145 35.3856 111.215 69.4179C111.26 91.2225 111.191 105.517 111.041 105.461C110.8 105.37 105.58 99.0025 104.756 97.7928C104.397 97.2657 100.979 92.9433 96.3357 87.1422C95.4973 86.0949 94.0383 84.2283 93.0934 82.9939C92.1485 81.7595 91.288 80.7497 91.1813 80.7497C91.0745 80.7497 90.8444 80.4742 90.6699 80.1377C90.4955 79.8009 89.8008 78.8524 89.1259 78.0295C87.9338 76.5756 85.9222 74.0183 83.696 71.1273C83.0961 70.3483 81.8143 68.7363 80.8479 67.5456C79.8813 66.355 78.9964 65.2582 78.8812 65.1086C78.2656 64.3075 71.3922 55.5656 70.0055 53.8198C69.1144 52.6977 67.8054 51.0452 67.0968 50.1475C66.3883 49.2499 65.1192 47.6586 64.2764 46.6113C62.1711 43.995 57.8038 38.473 56.5111 36.7927C53.6106 33.0231 50.9497 29.6702 50.3248 28.998L49.6293 28.25L40.7188 28.2916C33.4406 28.3256 32.281 28.3789 34.3891 28.5821C38.8871 29.0154 40.7767 29.881 41.6243 31.8959C41.9944 32.7747 42.118 34.0881 42.2101 38.1107C42.3451 44.0252 42.519 43.7554 39.5394 42.253C38.4942 41.7261 37.01 41.0466 36.2409 40.743C33.0779 39.4947 23.1445 34.6588 21.0764 33.3601C19.3493 32.2756 16.1972 29.8927 15.3762 29.0508C14.5231 28.176 13.1511 26.0352 12.3635 24.3503C11.3224 22.123 10.9306 19.7415 11.1257 16.8252C11.6103 9.57992 16.2119 3.78917 23.3858 1.39757C25.3875 0.730308 25.9244 0.671552 30.1779 0.656863C34.7333 0.641086 34.8311 0.653327 37.3189 1.54011C38.7061 2.03437 40.3743 2.79929 41.0261 3.23969C41.6779 3.68009 42.284 4.04024 42.3731 4.04024C43.0366 4.04024 46.9774 8.00193 47.9666 9.66316C48.4858 10.5353 49.0359 11.3388 49.1892 11.4487C49.3424 11.5586 49.3609 11.6503 49.2307 11.6527C49.1003 11.6549 49.1144 11.8099 49.262 11.9968C49.6692 12.5131 50.6932 15.894 51.1363 18.1853C51.3531 19.3073 51.605 21.6682 51.6957 23.4314C52.0264 29.8497 52.3203 26.6837 52.3203 16.7052C52.3203 10.0753 52.225 6.48842 52.0487 6.48842C51.8941 6.48842 51.777 7.29087 51.777 8.35202C51.777 10.3875 51.3738 11.9288 50.841 11.9288C50.3569 11.9288 49.6097 11.1824 48.5271 9.61664C47.6348 8.32618 43.8981 4.33429 43.8981 4.6716C43.8981 4.75892 43.5889 4.54348 43.211 4.19284C42.2603 3.31069 39.2221 1.77078 37.1059 1.09835C33.9682 0.1014 30.2073 -0.222848 26.1026 0.150091ZM45.4361 58.1305C47.9861 60.6328 49.8119 63.4343 50.8698 66.4687C51.5776 68.4988 51.6289 68.937 51.6311 72.9972C51.633 76.6583 51.5371 77.7045 51.0263 79.5852C50.2352 82.4988 49.3747 84.4119 47.7962 86.7676C46.4609 88.7602 43.1922 92.0024 42.7774 91.7456C42.6453 91.664 42.5396 83.6786 42.5396 73.7972C42.5396 59.1884 42.6043 55.996 42.9002 55.996C43.0982 55.996 44.2396 56.9565 45.4361 58.1305Z" fill="#333333"/>
</svg>
